# xmcd
#
# Track frame offsets:
#	150
#	15729
#	29025
#	51799
#	65717
#	87618
#	102173
#	123688
#	141147
#	156668
#
# Disc length: 2322 seconds
#
# Revision: 0
# Processed by: cddbd v1.5.2PL0 Copyright (c) Steve Scherf et al.
# Submitted via: EasyCDDAExtractor 11.0.2.1
#
DISCID=9709100a
DTITLE=Miko Marks - Freeway bound
DYEAR=2007
DGENRE=country
TTITLE0=Freeway bound
TTITLE1=Kickin' back
TTITLE2=Mama
TTITLE3=Don't come cryin' to me
TTITLE4=Feelin' the rain
TTITLE5=Find my way home
TTITLE6=The lonely one
TTITLE7=Excited
TTITLE8=All I wanna do
TTITLE9=I believe in you
EXTD=
EXTT0=
EXTT1=
EXTT2=
EXTT3=
EXTT4=
EXTT5=
EXTT6=
EXTT7=
EXTT8=
EXTT9=
PLAYORDER=
